<svg id="Layer_1" data-name="Layer 1" xmlns="http://www.w3.org/2000/svg" viewBox="0 0 300 300"><defs><style>.cls-1,.cls-4{fill:#fff;}.cls-1{stroke:#f26c65;}.cls-1,.cls-2,.cls-3{stroke-miterlimit:10;}.cls-1,.cls-2{stroke-width:4px;}.cls-2,.cls-3{fill:#f26c65;stroke:#fff;}.cls-2,.cls-3,.cls-4{fill-rule:evenodd;}.cls-3{stroke-linecap:round;stroke-width:3px;}</style></defs><title>thumb</title><rect class="cls-1" x="107.08" y="96.05" width="101.9" height="111.79" rx="21.55"/><rect class="cls-1" x="89.95" y="116.1" width="34.6" height="13.59" rx="6.79"/><rect class="cls-1" x="89.95" y="168.56" width="34.6" height="13.59" rx="6.79"/><path class="cls-2" d="M183.79,151.73a23.32,23.32,0,1,1-45.59,6.94,23.74,23.74,0,0,1,1-6.94l-.63-19.16a3,3,0,0,1,4.34-2.9l13.37,6.27a22.75,22.75,0,0,1,10.38,0l13.39-6.27a3,3,0,0,1,4.33,2.9Z"/><path class="cls-3" d="M173.76,162.24c0,4.42-3,8-6.7,8a6.34,6.34,0,0,1-5.22-3,6.37,6.37,0,0,1-5.23,3c-3.7,0-6.7-3.59-6.7-8"/><polygon class="cls-4" points="161.64 167.24 165.07 161.3 158.21 161.3 161.64 167.24"/></svg>