<svg id="Layer_1" data-name="Layer 1" xmlns="http://www.w3.org/2000/svg" viewBox="0 0 300 300"><defs><style>.cls-1,.cls-3{fill:#fff;stroke:#f26c65;stroke-miterlimit:10;stroke-width:4px;}.cls-2{fill:#f26c65;}.cls-3{stroke-dasharray:5;}</style></defs><title>thumb</title><polygon class="cls-1" points="155.97 201.58 113.82 178.03 113.82 132.37 155.97 155.91 155.97 201.58"/><polygon class="cls-1" points="202.03 119.09 160.83 144.26 121.04 121.86 162.24 96.68 202.03 119.09"/><polygon class="cls-2" points="163.53 201.46 205.68 173.85 205.68 128.18 163.53 155.79 163.53 201.46"/><line class="cls-3" x1="160.33" y1="121.05" x2="160.33" y2="84.57"/><line class="cls-1" x1="121.32" y1="182.41" x2="121.32" y2="136.51"/><line class="cls-1" x1="129.35" y1="187.22" x2="129.35" y2="141.32"/><line class="cls-1" x1="138.09" y1="191.33" x2="138.09" y2="145.42"/><line class="cls-1" x1="146.12" y1="196.14" x2="146.12" y2="150.24"/><polygon class="cls-1" points="136.47 207.76 94.32 184.21 94.32 138.55 136.47 162.09 136.47 207.76"/><line class="cls-3" x1="94.38" y1="190.42" x2="114.24" y2="172.9"/></svg>