<svg id="Layer_1" data-name="Layer 1" xmlns="http://www.w3.org/2000/svg" viewBox="0 0 300 300"><defs><style>.cls-1{fill:#f26c65;}.cls-2{fill:#fff;}.cls-2,.cls-3{stroke:#f26c65;stroke-miterlimit:10;stroke-width:4px;}.cls-3{fill:none;}</style></defs><title>thumb</title><polygon class="cls-1" points="179.17 158.39 177.79 154.63 191.11 149.74 192.7 138.37 196.66 138.93 194.74 152.66 179.17 158.39"/><polygon class="cls-1" points="111.68 158.39 96.11 152.66 94.19 138.93 98.15 138.37 99.74 149.74 113.06 154.63 111.68 158.39"/><polygon class="cls-1" points="98.4 197.68 94.44 197.12 96.36 183.38 111.93 177.66 113.31 181.41 99.99 186.31 98.4 197.68"/><polygon class="cls-1" points="192.95 197.68 191.35 186.31 178.04 181.41 179.42 177.66 194.98 183.38 196.91 197.12 192.95 197.68"/><polygon class="cls-1" points="197.77 173.07 195.16 168.57 180.35 168.57 180.35 164.57 197.46 164.57 201.23 171.06 197.77 173.07"/><polygon class="cls-1" points="93.71 173.07 90.25 171.06 94.02 164.57 111.13 164.57 111.13 168.57 96.32 168.57 93.71 173.07"/><rect class="cls-1" x="144.55" y="105.9" width="44.78" height="4" transform="translate(1.01 217.36) rotate(-66.29)"/><rect class="cls-1" x="120.6" y="85.51" width="4" height="44.78" transform="translate(-33.03 58.39) rotate(-23.7)"/><path class="cls-2" d="M180.24,167.85c0,22.76-15.47,41.21-34.56,41.21s-34.56-18.45-34.56-41.21a45.42,45.42,0,0,1,10.09-29.1c6.25-7.49,14.91-12.12,24.47-12.12s18.22,4.63,24.47,12.12A45.42,45.42,0,0,1,180.24,167.85Z"/><line class="cls-3" x1="145.68" y1="144.37" x2="145.68" y2="208.67"/><circle class="cls-1" cx="127.94" cy="147.85" r="3.22"/><circle class="cls-1" cx="119.8" cy="162.66" r="3.22"/><circle class="cls-1" cx="139.55" cy="168.08" r="3.22"/><circle class="cls-1" cx="136.5" cy="187.93" r="3.22"/><circle class="cls-1" cx="158.27" cy="151.95" r="3.22"/><circle class="cls-1" cx="157.18" cy="196.15" r="3.22"/><circle class="cls-1" cx="171" cy="173.27" r="3.22"/><circle class="cls-1" cx="169.75" cy="154.86" r="3.22"/><path class="cls-3" d="M170.15,138.75c-6.5,3.5-15.08,5.62-24.47,5.62s-18-2.12-24.47-5.62c6.25-7.49,14.91-12.12,24.47-12.12S163.9,131.26,170.15,138.75Z"/></svg>