<svg id="Layer_1" data-name="Layer 1" xmlns="http://www.w3.org/2000/svg" viewBox="0 0 300 300"><defs><style>.cls-1{fill:#fff;stroke:#f26c65;stroke-miterlimit:10;stroke-width:4px;}</style></defs><title>thumb</title><path class="cls-1" d="M102.68,189.49,98.9,141.14a10.11,10.11,0,0,1,4.17-9L147,100.58a10.07,10.07,0,0,1,11.77,0l43.89,31.54a10.1,10.1,0,0,1,4.16,9.07l-4.23,48.39a10.09,10.09,0,0,1-10,9.21H112.74A10.09,10.09,0,0,1,102.68,189.49Z"/><polyline class="cls-1" points="100.14 159.52 119.41 159.52 120.09 141.97 136.95 184.8 145.89 152.29 152.43 170.18 158.97 154.36 163.78 157.8 205.47 157.8"/></svg>