<svg id="Layer_1" data-name="Layer 1" xmlns="http://www.w3.org/2000/svg" viewBox="0 0 300 300"><defs><style>.cls-1,.cls-8{fill:#f26c65;}.cls-2{fill:none;stroke:#fff;}.cls-2,.cls-6,.cls-7,.cls-9{stroke-linecap:round;}.cls-10,.cls-2,.cls-5,.cls-6,.cls-9{stroke-miterlimit:10;}.cls-2,.cls-9{stroke-width:2px;}.cls-10,.cls-2,.cls-4,.cls-6,.cls-7,.cls-8,.cls-9{fill-rule:evenodd;}.cls-10,.cls-3,.cls-4,.cls-5,.cls-6,.cls-7,.cls-9{fill:#fff;}.cls-10,.cls-5,.cls-6,.cls-7,.cls-9{stroke:#f26c65;}.cls-10,.cls-5{stroke-width:4px;}.cls-6,.cls-7{stroke-width:3px;}.cls-7{stroke-linejoin:round;}</style></defs><title>thumbs</title><circle class="cls-1" cx="151.74" cy="137.52" r="8.3"/><path class="cls-2" d="M152.87,132.22a4.9,4.9,0,0,1,3.39,3.45"/><circle class="cls-3" cx="199.32" cy="210.88" r="8.3"/><path class="cls-4" d="M200.45,205.58a4.86,4.86,0,0,1,3.38,3.45"/><circle class="cls-3" cx="92.08" cy="210.88" r="8.3"/><path class="cls-4" d="M93.21,205.58A4.9,4.9,0,0,1,96.6,209"/><circle class="cls-3" cx="83.27" cy="196.57" r="8.3"/><path class="cls-4" d="M84.4,191.27a4.9,4.9,0,0,1,3.39,3.45"/><circle class="cls-3" cx="73.85" cy="210.88" r="8.3"/><path class="cls-2" d="M75,205.58A4.88,4.88,0,0,1,78.36,209"/><circle class="cls-3" cx="229.59" cy="210.88" r="8.3"/><path class="cls-4" d="M230.72,205.58a4.9,4.9,0,0,1,3.39,3.45"/><circle class="cls-1" cx="156.26" cy="121.93" r="8.3"/><path class="cls-2" d="M157.39,116.63a4.86,4.86,0,0,1,3.38,3.45"/><circle class="cls-1" cx="154" cy="106.34" r="8.3"/><path class="cls-2" d="M155.13,101a4.93,4.93,0,0,1,3.39,3.45"/><circle class="cls-5" cx="147.46" cy="174.07" r="28.25"/><polyline class="cls-6" points="139.45 202.32 136.86 211.09 131.44 212.6"/><polyline class="cls-7" points="139.24 214.78 136.78 210.88 135.45 216"/><polyline class="cls-6" points="159.26 200.79 163.52 208.89 160.7 213.75"/><polyline class="cls-6" points="168.25 210.02 163.52 208.89 166.29 213.74"/><circle class="cls-1" cx="134.45" cy="173.88" r="3"/><circle class="cls-1" cx="157.77" cy="171.55" r="3"/><path class="cls-8" d="M144,179.83a1.54,1.54,0,0,1,.77-2.1,7,7,0,0,1,3.27-.08h0a1.25,1.25,0,0,1,.7,1.63l-1,3.61c-.3,1.07-1.42,1.36-1.88.48Z"/><path class="cls-9" d="M130.5,168.55s.73-1.49,4.3-1.46"/><path class="cls-9" d="M154,164.44s2.68-1.22,4.71,0"/><path class="cls-10" d="M122.65,179.76c-2.29-.07-9.66,5.25-10.39,7.42a9.71,9.71,0,0,0-.38,2.69c-.08,1.94-.15,3.88-.18,5.82a6.27,6.27,0,0,0,.28,2.48,2.25,2.25,0,0,0,1.83,1.52c1.66.08,3.23-2.25,4.59-1.28.55.39.67,1.17,1.07,1.72,1,1.41,3.3.82,4.65-.29,2.94-2.41,2.19-16.65,1.54-17.58S123.63,179.79,122.65,179.76Z"/><path class="cls-10" d="M180.16,176.85c4.62,2.57,5.88,4.17,7.88,9.06a3.43,3.43,0,0,1,.24,1.73c-.38,2.71-2.33,4.65-4.13,3.43a20.58,20.58,0,0,1-2.14-1.82.88.88,0,0,0-1.45.81,3.89,3.89,0,0,1-.16,2,2.35,2.35,0,0,1-1.24,1.38c-1.28.56-2.33-.3-3.22-1.09l-2.42-2.17a11.21,11.21,0,0,1-3.18-3.85c-.63-1.56-3.39-13.3.66-13.21C173.9,173.15,177.83,175.56,180.16,176.85Z"/></svg>