<svg id="Layer_1" data-name="Layer 1" xmlns="http://www.w3.org/2000/svg" viewBox="0 0 300 300"><defs><style>.cls-1,.cls-2{fill:#fff;}.cls-1{fill-rule:evenodd;}.cls-2{stroke:#f26c65;stroke-miterlimit:10;stroke-width:4px;}.cls-3{fill:#f26c65;}</style></defs><title>thumbs</title><polygon class="cls-1" points="175.1 104.07 190.55 81.51 189.8 108.84 215.55 99.68 198.88 121.34 225.1 129.07 198.88 136.79 215.55 158.46 189.8 149.29 190.55 176.62 175.1 154.07 159.65 176.62 160.41 149.29 134.65 158.46 151.32 136.79 125.1 129.07 151.32 121.34 134.65 99.68 160.41 108.84 159.65 81.51 175.1 104.07"/><path class="cls-2" d="M175,116.24c-2.17-3.81-18.45-14.5-28.63-17.93s-24.67-8.28-36.25,0c-9.15,6.54-6.49,20.61-6.49,20.61l14.89,69.45s1.39,13.52,9.54,17.56,13.7,3.43,21.92,0,19.16-13.62,20.44-18.32,8-59.15,8-59.15S177.18,120.06,175,116.24Zm-6.83,19s-4.74,40.49-5.64,44-7.49,9.3-11.19,11.14c-5.67,2.81-9.9,5.49-15.63,2.49S129,179.84,129,179.84l-10.48-51.65s-4.15-13.86,2.3-18.72c8.15-6.16,20.63.84,27.8,3.39s18.63,10.5,20.15,13.34S168.19,135.28,168.19,135.28Z"/><rect class="cls-3" x="160.65" y="129.8" width="21.39" height="50.88" rx="2.5" transform="translate(23.82 -22.79) rotate(8.18)"/></svg>