<svg id="Layer_1" data-name="Layer 1" xmlns="http://www.w3.org/2000/svg" viewBox="0 0 300 300"><defs><style>.cls-1{fill:#fff;stroke:#f26c65;stroke-miterlimit:10;stroke-width:4px;}</style></defs><title>thumb</title><polygon class="cls-1" points="195.59 122.69 126.6 191.68 94.23 205.49 108.04 173.12 177.03 104.13 195.59 122.69"/><path class="cls-1" d="M185.09,98.36h15.1a5.57,5.57,0,0,1,5.57,5.57v11.85a0,0,0,0,1,0,0H179.52a0,0,0,0,1,0,0V103.94A5.57,5.57,0,0,1,185.09,98.36Z" transform="translate(132.13 -104.86) rotate(45)"/><rect class="cls-1" x="169.94" y="111.81" width="26.25" height="9.68" transform="translate(136.1 -95.28) rotate(45)"/><line class="cls-1" x1="114.56" y1="175.12" x2="174.07" y2="115.6"/><line class="cls-1" x1="124.55" y1="185.11" x2="184.07" y2="125.6"/><polygon class="cls-1" points="104.27 201.84 94.23 205.49 98.31 195.88 104.27 201.84"/><path class="cls-1" d="M107.85,173.39c1.34-1.34,3.86-1,5.63.78a4.71,4.71,0,0,1,1.45,4.53,5.18,5.18,0,0,1,6,6,4.68,4.68,0,0,1,4.52,1.44c1.78,1.78,2.13,4.3.79,5.64"/></svg>