<svg id="Layer_1" data-name="Layer 1" xmlns="http://www.w3.org/2000/svg" viewBox="0 0 300 300"><defs><style>.cls-1,.cls-4,.cls-5{fill:#fff;}.cls-1{fill-rule:evenodd;}.cls-2{fill:#f26c65;}.cls-3{fill:#e5e55b;}.cls-4{stroke:#f26c65;stroke-miterlimit:10;stroke-width:4px;}</style></defs><title>thumb</title><path class="cls-1" d="M119,106l21.75-15.64-16.85-7.89a3.05,3.05,0,0,0-4.47,3Z"/><path class="cls-1" d="M184.68,106,162.93,90.33l16.85-7.89a3.05,3.05,0,0,1,4.47,3Z"/><path class="cls-2" d="M194,176.43c-6.29,25.48-22.38,23.51-47.95,23.51s-34.7-22.65-34.7-50.6c0-2.7-.08-13.38-.08-16.21,0-21.33,12.67-38.83,28.83-40.63a30.43,30.43,0,0,1,17-5.29c14.36,0,24.2,9.57,32.7,25.74C198.89,133.92,197.43,162.59,194,176.43Z"/><path class="cls-3" d="M184.44,209.73c1.13-.51,2.25-1,3.35-1.62C186.69,208.68,185.57,209.22,184.44,209.73Z"/><path class="cls-4" d="M189.2,200.24c-.71.54-1.43,1.06-2.16,1.57-.91.63-1.84,1.24-2.78,1.81a61.28,61.28,0,0,1-21.42,8.19c-1.5.27-3,.48-4.55.64l-3.24.26H155l-.61,0-1,0h-1.55a61.7,61.7,0,0,1-37.35-12.54c2.92-14.73,18.54-26,37.36-26S186.27,185.52,189.2,200.24Z"/><path class="cls-5" d="M125.52,132.81c-.71-6.52,1.67-12.59,5.06-18.34,2.48-4.22,9.58-9.86,10-9.63,9.33,4.85,15.8,8.37,25.13,13.22,5.44,2.83,10.68,5.84,13.27,9.46,2.26,3.18,3.27,4.49,3.73,5.63s1.81.34,3,4.26c.84,2.69.11,7.47-1.89,9.72-1.47,1.65-3.09,2.83-4.15,4.73-.73,1.3-9.41,18.63-27.09,19.6-17,.93-23.64-15.08-24.54-16.69-.82-1.45-1.77-5.72-3.3-6.55-2-1.07-3.07-3-3.74-6.33a9.89,9.89,0,0,1,1.52-7.67,3.42,3.42,0,0,1,2.24-1.28c.42-.09.32-.32.71-.13Z"/><path class="cls-5" d="M162.84,161.43v50.38c-1.5.27-3,.48-4.55.64l-3.24.26H155l-.61,0-1,0h-1.55a62.07,62.07,0,0,1-10.27-.85V161.43Z"/><path class="cls-2" d="M162.84,178.07v33.74c-1.5.27-3,.48-4.55.64l-3.24.26H155l-.61,0-1,0h-1.55a62.07,62.07,0,0,1-10.27-.85V179a13.14,13.14,0,0,0,5.41,4,13.29,13.29,0,0,0,4.89.93,13.23,13.23,0,0,0,11-5.84Z"/><path class="cls-4" d="M185.22,132.63a9.49,9.49,0,0,0-2.33-.76c-.76-.19-1.72-.49-2.72-.74-1.65-.4-2-.41-2.65-.6a27.42,27.42,0,0,0-8.12-1.39c-6.45,0-11.38,1.77-13.34,5.76a10.37,10.37,0,0,0-7.35-.58,5.29,5.29,0,0,0-1.35.6c-2.09-3.68-6.9-5.31-13.09-5.31a27.55,27.55,0,0,0-8.13,1.39c-.61.18-1,.2-2.64.6-1,.24-2,.54-2.73.73a9.37,9.37,0,0,0-2.32.77,2.35,2.35,0,0,0-.48,2.48c.62.1.42.17,1.54.33a3.42,3.42,0,0,1,1.51,1.54c0,.08,0,15.25,13.71,15.25,7.34,0,13.94-8,13.78-13.4a9.64,9.64,0,0,0-.4-2.6,2.55,2.55,0,0,1,.6-.23,10.33,10.33,0,0,1,6.7.3,9.52,9.52,0,0,0-.25,2.06c-.16,5.38,6.43,13.4,13.78,13.4,13.68,0,13.7-15.16,13.7-15.24a3.42,3.42,0,0,1,1.51-1.54c1.13-.16.93-.24,1.55-.33A2.37,2.37,0,0,0,185.22,132.63Zm-50.28,19.16c-11.33,0-12.26-9.55-12.26-14.22,0-3,4.94-6.33,11.91-6.33s12.61,2,12.61,8.46C147.2,144.38,141.9,151.79,134.94,151.79Zm33.79-.46c-7,0-12.27-7.42-12.27-12.1,0-6.49,5.65-8.46,12.62-8.46S181,134.05,181,137.1C181,141.77,180.06,151.33,168.73,151.33Z"/></svg>