<svg id="Layer_1" data-name="Layer 1" xmlns="http://www.w3.org/2000/svg" viewBox="0 0 300 300"><defs><style>.cls-1{fill:#f26c65;}.cls-2{fill:#fff;}</style></defs><title>thumbs</title><circle class="cls-1" cx="173.24" cy="98.04" r="9.67"/><path class="cls-1" d="M173.13,113.11l-8.37-2.55a8.39,8.39,0,0,0-2.44-.37H141.81a3.14,3.14,0,0,0-2.64,1.46l-11.86,19.57a2.65,2.65,0,0,0-.27.53c-.49,1.26-1.57,4.19,2.73,6.87,2.15,1.34,4.34.2,5.56-.71a5.27,5.27,0,0,0,1.39-1.58l8.16-14.21a3.09,3.09,0,0,1,2.66-1.28h0a3.1,3.1,0,0,1,2.61,4.53l-24.54,47.27a3.1,3.1,0,0,1-2.7,1.68l-24.9.51-1.19.07c-1.29.07-4-.23-4,4.61,0,3.62,4.5,4,5.34,3.91l.31,0,31.5.06s2.75,0,3.88-1.92c1.22-2.06,4.05-6.51,6.67-10.74a8.36,8.36,0,0,1,12.56-1.92l6.53,5.65a11.57,11.57,0,0,1,4,8.73v27.41a3.18,3.18,0,0,0,1.75,2.89,6.61,6.61,0,0,0,2.91.55c4,0,4.18-2.3,4.09-3.2,0-.33,0-.66,0-1l.28-32.18a8.36,8.36,0,0,0-2.51-6l-7.59-7.43a8.35,8.35,0,0,1-1.52-9.9l12.13-22.68a3.09,3.09,0,0,1,4.56-1c3.43,2.5,9.92,7.2,13.7,9.4a3.28,3.28,0,0,0,4.34-1c3.35-4.76,10.28-16,11.27-17.91.1-.19,1.1-3.39-1.4-5.12a4.68,4.68,0,0,0-4.47-.67,4.91,4.91,0,0,0-2.38,2l-4.77,7.31a3.1,3.1,0,0,1-4.77,1l-13.09-11A8.31,8.31,0,0,0,173.13,113.11Z"/><rect class="cls-2" x="35.08" y="137.96" width="58.26" height="2.29"/><rect class="cls-2" x="47.93" y="156.31" width="58.26" height="2.29"/><rect class="cls-2" x="47.93" y="120.71" width="58.26" height="2.29"/></svg>