<svg id="Layer_1" data-name="Layer 1" xmlns="http://www.w3.org/2000/svg" viewBox="0 0 107.62 146.54"><defs><style>.cls-1,.cls-5{fill:#f26c65;}.cls-1{stroke:#fff;}.cls-1,.cls-3{stroke-miterlimit:10;stroke-width:4px;}.cls-2{fill:#e5e55b;}.cls-3,.cls-4{fill:#fff;}.cls-3{stroke:#f26c65;}</style></defs><title>thumb</title><path class="cls-1" d="M97.23,95.68c-6.29,25.47-22.38,23.51-47.95,23.51s-34.7-22.65-34.7-50.6c0-2.71-.08-13.39-.08-16.21,0-21.33,12.67-38.84,28.83-40.64a30.47,30.47,0,0,1,17-5.28C74.67,6.46,84.51,16,93,32.2,102.1,53.16,100.65,81.84,97.23,95.68Z"/><path class="cls-2" d="M87.66,129c1.13-.51,2.24-1,3.34-1.62C89.91,127.93,88.79,128.47,87.66,129Z"/><path class="cls-3" d="M92.42,119.49c-.71.54-1.43,1.06-2.16,1.57-.91.63-1.84,1.23-2.78,1.81a61.48,61.48,0,0,1-21.42,8.19c-1.5.27-3,.48-4.55.64l-3.24.25h-.06l-.61,0-1,0H55.05A61.7,61.7,0,0,1,17.7,119.5c2.92-14.73,18.53-26,37.36-26S89.49,104.76,92.42,119.49Z"/><path class="cls-4" d="M28.74,52.05C28,45.54,30.41,39.47,33.8,33.71c2.48-4.22,9.58-9.85,10-9.62C53.14,28.93,59.62,32.46,69,37.3c5.44,2.83,10.68,5.84,13.26,9.47,2.27,3.17,3.28,4.49,3.74,5.62s1.81.35,3,4.27c.84,2.68.11,7.47-1.9,9.72C85.62,68,84,69.21,82.94,71.11c-.73,1.3-9.41,18.62-27.1,19.59-17,.93-23.63-15.08-24.53-16.68S29.54,68.3,28,67.47c-2-1.07-3.07-3-3.74-6.33a9.89,9.89,0,0,1,1.52-7.67A3.47,3.47,0,0,1,28,52.18c.42-.08.32-.31.71-.13Z"/><path class="cls-4" d="M66.06,80.67v50.39c-1.5.27-3,.48-4.55.64l-3.24.25h-.06l-.61,0-1,0H55.05a62.07,62.07,0,0,1-10.27-.85V80.67Z"/><path class="cls-5" d="M66.06,97.32v33.74c-1.5.27-3,.48-4.55.64l-3.24.25h-.06l-.61,0-1,0H55.05a62.07,62.07,0,0,1-10.27-.85V98.24a13.28,13.28,0,0,0,10.3,4.92,13.24,13.24,0,0,0,4.3-.72A13.1,13.1,0,0,0,66.06,97.32Z"/><path class="cls-3" d="M88.44,51.87a10.43,10.43,0,0,0-2.33-.76c-.76-.18-1.72-.48-2.73-.73-1.64-.4-2-.42-2.64-.6a27.42,27.42,0,0,0-8.12-1.39c-6.45,0-11.38,1.77-13.34,5.75a10.32,10.32,0,0,0-7.35-.57,4.94,4.94,0,0,0-1.35.59c-2.09-3.67-6.9-5.3-13.09-5.3a27.49,27.49,0,0,0-8.13,1.39c-.61.18-1,.2-2.64.6-1,.24-2,.54-2.73.73a10.1,10.1,0,0,0-2.33.76,2.38,2.38,0,0,0-.47,2.49c.62.09.42.17,1.54.33a3.42,3.42,0,0,1,1.51,1.54c0,.08,0,15.24,13.7,15.24,7.35,0,13.94-8,13.79-13.4a10,10,0,0,0-.4-2.59,2,2,0,0,1,.6-.23,10.27,10.27,0,0,1,6.7.3,10.17,10.17,0,0,0-.26,2c-.15,5.39,6.44,13.4,13.79,13.4,13.68,0,13.7-15.15,13.7-15.24a3.38,3.38,0,0,1,1.51-1.53c1.13-.16.93-.25,1.55-.34A2.37,2.37,0,0,0,88.44,51.87ZM38.16,71C26.83,71,25.9,61.49,25.9,56.81c0-3.05,4.94-6.33,11.91-6.33s12.61,2,12.61,8.47C50.42,63.63,45.12,71,38.16,71ZM72,70.57c-7,0-12.27-7.41-12.27-12.09C59.68,52,65.33,50,72.29,50s11.92,3.29,11.92,6.33C84.21,61,83.27,70.57,72,70.57Z"/></svg>