<svg id="Layer_1" data-name="Layer 1" xmlns="http://www.w3.org/2000/svg" viewBox="0 0 300 300"><defs><style>.cls-1{fill:#f26c65;}.cls-2,.cls-3{fill:#fff;}.cls-2,.cls-3,.cls-4{stroke:#f26c65;stroke-miterlimit:10;stroke-width:4px;}.cls-3,.cls-4{stroke-linecap:square;}.cls-4{fill:none;}</style></defs><title>thumb</title><polygon class="cls-1" points="222.41 123.88 222.41 214.07 189.75 214.07 189.75 123.88 196.57 123.88 196.57 118.84 215.59 118.84 215.59 123.88 222.41 123.88"/><rect class="cls-1" x="113.42" y="87.4" width="31.04" height="127.43"/><polyline class="cls-2" points="126.67 214.07 126.67 160.18 108.41 136.19 106.26 136.19 88 160.18 88 214.07 126.67 214.07"/><polygon class="cls-3" points="178.83 104.27 178.83 214.07 138.3 214.07 138.3 104.27 142.14 99.21 142.59 99.21 146.44 104.27 146.44 114.76 170.69 114.76 170.69 104.27 174.54 99.21 174.99 99.21 178.83 104.27"/><rect class="cls-3" x="158.73" y="155.04" width="45.29" height="59.02"/><path class="cls-3" d="M225.9,214.07c0-12.12-17.94-21.95-40.07-21.95s-40.07,9.83-40.07,21.95Z"/><line class="cls-4" x1="185.83" y1="213.27" x2="185.83" y2="192.44"/><line class="cls-4" x1="167.13" y1="213.27" x2="167.13" y2="196"/><line class="cls-4" x1="203.51" y1="213.27" x2="203.51" y2="196"/><line class="cls-3" x1="88" y1="214.07" x2="225.9" y2="214.07"/></svg>