<svg id="Layer_1" data-name="Layer 1" xmlns="http://www.w3.org/2000/svg" viewBox="0 0 300 300"><defs><style>.cls-1{fill:#f26c65;}.cls-2{fill:#fff;stroke:#f26c65;stroke-miterlimit:10;stroke-width:4px;}</style></defs><title>thumb</title><path class="cls-1" d="M206.28,139.7c0,26.51-47.88,72.52-47.88,72.52s-47.88-46-47.88-72.52a47.88,47.88,0,1,1,95.76,0Z"/><path class="cls-2" d="M189.48,139.7c0,26.51-47.88,72.52-47.88,72.52s-47.88-46-47.88-72.52a47.88,47.88,0,1,1,95.76,0Z"/><path class="cls-1" d="M119.4,122.56l-5.09-1.76a13.8,13.8,0,0,1,25.54-1.31L135,121.77a8.42,8.42,0,0,0-15.57.79Z"/><path class="cls-1" d="M167.5,122.56a8.41,8.41,0,0,0-15.56-.79l-4.88-2.28a13.79,13.79,0,0,1,25.53,1.31Z"/><path class="cls-1" d="M174.81,157.41a10.48,10.48,0,0,1-14.75-.76l-5.4-6-1.89-2.09a9.39,9.39,0,0,1-2-3.36,9.93,9.93,0,0,0,1.16-.7l1.08-.4c5.86-2.46,12.91-4.08,16.25-8.38a7,7,0,0,1,1,.9l-.31,0,1.88,2,3.68,4.07A10.47,10.47,0,0,1,174.81,157.41Z"/><path class="cls-1" d="M179.32,131.2a27.7,27.7,0,0,1-6.61,8.75c-.4.4-.86.73-1.33,1.13a43.11,43.11,0,0,1-17.23,8.28l-1.87.4a51.43,51.43,0,0,1-10.28,1c-12.42,0-23.77-4.2-31.11-11.28a29.27,29.27,0,0,1-4.54-5.48l5.61-3.6c5.34,8.34,17.15,13.69,30,13.69a47.2,47.2,0,0,0,8.75-.87c.4-.07.73-.14,1.13-.2a35.42,35.42,0,0,0,15.89-7.61c.4-.34.8-.74,1.2-1.14a20.73,20.73,0,0,0,4.34-5.94Z"/></svg>