<svg id="Layer_1" data-name="Layer 1" xmlns="http://www.w3.org/2000/svg" viewBox="0 0 300 300"><defs><style>.cls-1{fill:none;stroke:#fff;stroke-miterlimit:10;stroke-width:4px;}.cls-2,.cls-3{fill:#f26c65;}.cls-3{fill-rule:evenodd;}</style></defs><title>thumbs</title><rect class="cls-1" x="109.29" y="113.09" width="81.96" height="81.96" transform="translate(152.96 -61.13) rotate(45)"/><rect class="cls-2" x="168.49" y="140.54" width="12.86" height="31.87"/><rect class="cls-2" x="151.88" y="140.54" width="12.86" height="31.87"/><rect class="cls-2" x="135.53" y="140.54" width="12.86" height="31.87"/><rect class="cls-2" x="119.45" y="140.54" width="12.86" height="31.87"/><polygon class="cls-3" points="113.24 136.94 188.47 136.94 150.85 121.97 113.24 136.94"/><rect class="cls-2" x="116.08" y="174.89" width="68.65" height="4.06"/><rect class="cls-2" x="113.38" y="180.98" width="74.93" height="4.06"/><polygon class="cls-2" points="194.67 155.38 202.27 156.4 197.36 172.21 211.97 151.23 204.9 149.47 209.81 142.07 196.48 138.54 194.67 155.38"/><path class="cls-2" d="M145.86,218.6c-2.62-.7-7.44-2.56-9.17-4.71-3.77-4.72-.36-8.39,1.68-11.61,7.57-11.94,2.71-3.3,3.89,2,.48,2.15.78,2.91.91,1.79.92-7.64,3.51-4.56,3.82-8.14.44-5.18-1.49-7.22-2.55-8.66s10.47,4.62,12.7,7.95c2.49,3.72,5.38,7.69,1.91,12.05-.57.71.36.62,1.17.19,3.16-1.69,4-1.78,4.88-2.58,1.5-1.3-3.2,3.22-4.41,6S158.2,216.4,156,217a78.13,78.13,0,0,1-8.24,1.26c-.09,0,4.64-1.95,5.71-5.33,1.9-6-1.56-15.61-.75-12.05a9.56,9.56,0,0,1-1.36,7.88c-2.85,3.28-5.12,4.53-5.91,3.89C134,203.48,145.86,218.6,145.86,218.6Z"/><path class="cls-2" d="M85.93,160.42c0-5.86,10.57-16,10.57-16s10.57,10.15,10.57,16a10.57,10.57,0,1,1-21.14,0Z"/><path class="cls-2" d="M143.57,105.2a7.81,7.81,0,0,0,4.32,2.4v-5c-5-1-7.36-3.6-7.36-6.92,0-3.88,2.64-6.8,7.36-7.68v-3h5.52v2.83a14.93,14.93,0,0,1,7.36,3.28l-3.4,4a9.2,9.2,0,0,0-4-2.08v5l.76.16c4.56,1,6.84,3.8,6.84,7.16,0,3.64-2.24,6.72-7.6,7.56v2.88h-5.52V113a13.75,13.75,0,0,1-8-4.16ZM147.89,93A1.93,1.93,0,0,0,146.33,95c0,.76.32,1.48,1.56,2Zm7,12.88a2.12,2.12,0,0,0-1.48-2v4A2,2,0,0,0,154.89,105.92Z"/></svg>