<svg xmlns="http://www.w3.org/2000/svg" viewBox="0 0 495.88 502.64"><defs><style>.cls-1{fill:#b9d1cd;}.cls-2{fill:#303030;}.cls-3{fill:#e5e55b;}.cls-4{fill:#e5e5e5;}.cls-5{fill:#feebde;}.cls-6{fill:#e8b99e;}.cls-7{fill:#f26c65;}.cls-8{fill:#fff;}.cls-10,.cls-9{fill:none;stroke:#303030;stroke-miterlimit:10;}.cls-9{stroke-linecap:round;stroke-width:4px;}</style></defs><title>portrait</title><g id="Layer_4" data-name="Layer 4"><path class="cls-1" d="M495.88,255A247.49,247.49,0,0,1,397.6,452.71q-4.26,3.24-8.66,6.28c-3.63,2.53-7.35,5-11.11,7.25A245.53,245.53,0,0,1,292,499.05q-9,1.62-18.2,2.57l-13,1-.27,0-2.42.09c-1.34.07-2.67.11-4,.14l-5.08.06c-.37,0-.75,0-1.13,0A247.91,247.91,0,0,1,0,255C0,118.09,111,7.09,247.93,7.09S495.88,118.09,495.88,255Z"/><path class="cls-2" d="M416.88,357.34c-25.21,102-89.66,94.17-192,94.17s-139-90.73-139-202.65c0-10.85-.31-53.62-.31-64.94C85.52,98.5,136.28,28.38,201,21.17,221.28,7.66,244.42,0,269,0c57.54,0,96.93,38.35,131,103.09C436.4,187.07,430.58,301.9,416.88,357.34Z"/></g><g id="Layer_3" data-name="Layer 3"><path class="cls-3" d="M362.53,490.71c4.53-2,9-4.19,13.39-6.47C371.53,486.52,367.06,488.69,362.53,490.71Z"/><path class="cls-4" d="M397.6,452.71q-4.26,3.24-8.66,6.28c-3.63,2.53-7.35,5-11.11,7.25A245.53,245.53,0,0,1,292,499.05q-9,1.62-18.2,2.57l-13,1-.27,0-2.42.09c-1.34.07-2.67.11-4,.14l-5.08.06c-.37,0-.75,0-1.13,0a247.19,247.19,0,0,1-149.6-50.21c11.7-59,74.24-104,149.64-104S385.86,393.74,397.6,452.71Z"/><path class="cls-5" d="M142.56,182.62c-2.85-26.1,6.68-50.41,20.26-73.46,9.94-16.89,38.37-39.47,40.14-38.54,37.34,19.4,63.29,33.52,100.63,52.92,21.8,11.33,42.79,23.39,53.14,37.9,9.08,12.73,13.11,18,14.95,22.54,1.91,4.7,7.27,1.39,12.15,17.09,3.35,10.75.43,29.92-7.59,38.94-5.88,6.6-12.35,11.33-16.6,18.92-2.92,5.22-37.71,74.61-108.53,78.49-68.18,3.73-94.68-60.4-98.28-66.83-3.26-5.82-7.07-22.91-13.2-26.23-7.91-4.28-12.29-12-15-25.36a39.68,39.68,0,0,1,6.06-30.7c1.75-2.59,5-4.35,9-5.16,1.7-.35,1.3-1.28,2.86-.52Z"/><path class="cls-6" d="M238.17,232a13.72,13.72,0,0,0,4.88,4c.43.19.87.35,1.32.52s.95.34,1.41.47a13.8,13.8,0,0,0,2.67.55,9,9,0,0,0,5-.88,29.73,29.73,0,0,0,5.44-3.74l.27.13a14.63,14.63,0,0,1-4.28,5.52,10.31,10.31,0,0,1-3.16,1.63,9.42,9.42,0,0,1-3.54.32,14.06,14.06,0,0,1-6.53-2.59,9.63,9.63,0,0,1-2.42-2.59,11.09,11.09,0,0,1-1.33-3.25Z"/><path class="cls-5" d="M292,297.25v201.8q-9,1.62-18.2,2.57l-13,1-.27,0-2.42.09c-1.34.07-2.67.11-4,.14l-5.08.06c-.37,0-.75,0-1.13,0a248.84,248.84,0,0,1-41.12-3.4V297.25Z"/><path class="cls-7" d="M292,363.91V499.05q-9,1.62-18.2,2.57l-13,1-.27,0-2.42.09c-1.34.07-2.67.11-4,.14l-5.08.06c-.37,0-.75,0-1.13,0a248.84,248.84,0,0,1-41.12-3.4v-132A53,53,0,0,0,292,363.91Z"/><path class="cls-6" d="M206.82,329.66A206.72,206.72,0,0,0,228,335.29a96.16,96.16,0,0,0,21.73,2,93.84,93.84,0,0,0,21.59-3.16A159.3,159.3,0,0,0,292,327l.08.18c-3.24,1.72-6.56,3.29-9.95,4.74l-2.56,1-2.6.93c-1.74.62-3.47,1.25-5.25,1.75a55.24,55.24,0,0,1-5.37,1.45c-1.81.4-3.61.86-5.45,1.11s-3.68.59-5.54.72l-2.78.26c-.93.07-1.87.07-2.8.11l-2.79,0-2.8-.11c-1.86,0-3.71-.23-5.56-.43a91.46,91.46,0,0,1-10.94-2c-1.79-.45-3.57-.95-5.35-1.42l-5.27-1.62c-3.46-1.26-6.92-2.46-10.29-3.92Z"/><path class="cls-2" d="M276.32,268.49a9.47,9.47,0,0,1,8.34,14.06c-6.48,11.26-20.51,19.06-36.76,19.06-16.08,0-30-7.63-36.55-18.7a9.52,9.52,0,0,1,8.14-14.42Z"/><path class="cls-8" d="M219.24,268.49h58.55a0,0,0,0,1,0,0v0a11.88,11.88,0,0,1-11.88,11.88H231.12a11.88,11.88,0,0,1-11.88-11.88v0a0,0,0,0,1,0,0Z"/><path class="cls-7" d="M277.79,291c-7.41,6.53-18,10.62-29.77,10.62-11.25,0-21.43-3.73-28.78-9.77,4.35-5.39,16-9.24,29.65-9.24C261.83,282.6,272.94,286.05,277.79,291Z"/></g><g id="Layer_1" data-name="Layer 1"><path class="cls-9" d="M156.47,177.73A79.76,79.76,0,0,1,220,169.64"/><path class="cls-9" d="M338.44,186.17a79.72,79.72,0,0,0-59.63-23.36"/><path class="cls-7" d="M381.67,181.9c-1.68-1.11-6.19-2.3-9.33-3s-6.9-2-10.92-2.94c-6.6-1.6-8.15-1.67-10.59-2.42-9.2-2.78-20.07-5.57-32.54-5.57-25.82,0-45.58,7.09-53.41,23.06a41.42,41.42,0,0,0-29.45-2.29,20.45,20.45,0,0,0-5.41,2.37c-8.37-14.71-27.62-21.26-52.43-21.26-12.47,0-23.31,2.79-32.54,5.57-2.44.72-4,.82-10.59,2.42-4,.95-7.85,2.17-10.92,2.91s-7.65,1.94-9.33,3.07c-3.5,2.34-2.62,9.84-1.9,9.94,2.47.39,1.67.7,6.18,1.34a13.63,13.63,0,0,1,6.05,6.16c0,.34.08,61.06,54.88,61.06,29.42,0,55.83-32.1,55.21-53.67a39.83,39.83,0,0,0-1.59-10.4,8.87,8.87,0,0,1,2.39-.91,41.42,41.42,0,0,1,26.85,1.19,40.46,40.46,0,0,0-1,8.24c-.62,21.57,25.79,53.67,55.21,53.67,54.8,0,54.87-60.7,54.87-61a13.69,13.69,0,0,1,6.06-6.16c4.51-.65,3.71-1,6.18-1.34C384.29,191.77,385.17,184.27,381.67,181.9Zm-201.4,76.77c-45.37,0-49.1-38.26-49.1-57,0-12.21,19.81-25.35,47.71-25.35s50.52,7.89,50.52,33.91C229.4,229,208.17,258.67,180.27,258.67Zm135.34-1.88c-27.9,0-49.13-29.7-49.13-48.43,0-26,22.62-33.91,50.52-33.91s47.74,13.17,47.74,25.35C364.74,218.53,361,256.79,315.61,256.79Z"/><path class="cls-2" d="M304.23,202.88a9.09,9.09,0,0,1-1.5,5,5,5,0,0,0-2.42-.6,5.26,5.26,0,0,0-5.28,4.84h0a9.26,9.26,0,1,1,9.25-9.25Z"/><path class="cls-2" d="M206.75,203.89a9.09,9.09,0,0,1-1.5,5,5,5,0,0,0-2.43-.61,5.26,5.26,0,0,0-5.27,4.85h-.06a9.26,9.26,0,1,1,9.26-9.26Z"/><line class="cls-10" x1="300.88" y1="198.89" x2="308.37" y2="191.4"/><line class="cls-10" x1="294.98" y1="196.61" x2="302.47" y2="189.12"/><line class="cls-10" x1="191.98" y1="200.67" x2="184.49" y2="193.17"/><line class="cls-10" x1="197.88" y1="198.38" x2="190.39" y2="190.89"/></g></svg>